<mxfile modified="2022-02-17T03:50:53.349Z" host="app.diagrams.net" agent="5.0 (Windows NT 10.0; Win64; x64) AppleWebKit/537.36 (KHTML, like Gecko) Chrome/96.0.4664.45 Safari/537.36" etag="sUX5ww52rvqoUX4ERQdU" version="16.5.6" type="github">
  <diagram id="Ht1M8jgEwFfnCIfOTk4-" name="Page-1">
    <mxGraphModel dx="782" dy="372" grid="1" gridSize="10" guides="1" tooltips="1" connect="1" arrows="1" fold="1" page="1" pageScale="1" pageWidth="1654" pageHeight="2336" math="0" shadow="0">
      <root>
        <mxCell id="0" />
        <mxCell id="1" parent="0" />
        <mxCell id="FsZnFzZRh3o9kU6Aq7DV-1" value="互联网" style="ellipse;shape=cloud;whiteSpace=wrap;html=1;" vertex="1" parent="1">
          <mxGeometry x="280" y="360" width="80" height="40" as="geometry" />
        </mxCell>
        <mxCell id="FsZnFzZRh3o9kU6Aq7DV-2" value="信息中心" style="ellipse;shape=cloud;whiteSpace=wrap;html=1;" vertex="1" parent="1">
          <mxGeometry x="370" y="365" width="80" height="35" as="geometry" />
        </mxCell>
        <mxCell id="FsZnFzZRh3o9kU6Aq7DV-3" value="政务外网" style="ellipse;shape=cloud;whiteSpace=wrap;html=1;" vertex="1" parent="1">
          <mxGeometry x="460" y="360" width="90" height="40" as="geometry" />
        </mxCell>
        <mxCell id="FsZnFzZRh3o9kU6Aq7DV-4" value="卫计委" style="ellipse;shape=cloud;whiteSpace=wrap;html=1;" vertex="1" parent="1">
          <mxGeometry x="545" y="365" width="80" height="40" as="geometry" />
        </mxCell>
        <mxCell id="FsZnFzZRh3o9kU6Aq7DV-6" value="" style="fontColor=#ffffff;verticalAlign=top;verticalLabelPosition=bottom;labelPosition=center;align=center;html=1;outlineConnect=0;fillColor=#a20025;strokeColor=#6F0000;gradientDirection=north;strokeWidth=2;shape=mxgraph.networks.firewall;" vertex="1" parent="1">
          <mxGeometry x="420" y="530" width="100" height="100" as="geometry" />
        </mxCell>
        <mxCell id="FsZnFzZRh3o9kU6Aq7DV-9" style="edgeStyle=orthogonalEdgeStyle;rounded=0;orthogonalLoop=1;jettySize=auto;html=1;exitX=0;exitY=0.42;exitDx=0;exitDy=0;exitPerimeter=0;entryX=0.55;entryY=0.95;entryDx=0;entryDy=0;entryPerimeter=0;strokeColor=none;" edge="1" parent="1" target="FsZnFzZRh3o9kU6Aq7DV-1">
          <mxGeometry relative="1" as="geometry">
            <mxPoint x="220" y="406" as="sourcePoint" />
          </mxGeometry>
        </mxCell>
        <mxCell id="FsZnFzZRh3o9kU6Aq7DV-16" value="" style="endArrow=none;html=1;rounded=0;entryX=0.55;entryY=0.95;entryDx=0;entryDy=0;entryPerimeter=0;startArrow=none;" edge="1" parent="1" source="FsZnFzZRh3o9kU6Aq7DV-12" target="FsZnFzZRh3o9kU6Aq7DV-1">
          <mxGeometry width="50" height="50" relative="1" as="geometry">
            <mxPoint x="400" y="550" as="sourcePoint" />
            <mxPoint x="450" y="500" as="targetPoint" />
          </mxGeometry>
        </mxCell>
        <mxCell id="FsZnFzZRh3o9kU6Aq7DV-12" value="" style="fontColor=#0066CC;verticalAlign=top;verticalLabelPosition=bottom;labelPosition=center;align=center;html=1;outlineConnect=0;fillColor=#CCCCCC;strokeColor=#6881B3;gradientColor=none;gradientDirection=north;strokeWidth=2;shape=mxgraph.networks.comm_link;" vertex="1" parent="1">
          <mxGeometry x="360" y="425" width="20" height="85" as="geometry" />
        </mxCell>
        <mxCell id="FsZnFzZRh3o9kU6Aq7DV-17" value="" style="endArrow=none;html=1;rounded=0;" edge="1" parent="1" source="FsZnFzZRh3o9kU6Aq7DV-6" target="FsZnFzZRh3o9kU6Aq7DV-12">
          <mxGeometry width="50" height="50" relative="1" as="geometry">
            <mxPoint x="400" y="550" as="sourcePoint" />
            <mxPoint x="216" y="356" as="targetPoint" />
          </mxGeometry>
        </mxCell>
        <mxCell id="FsZnFzZRh3o9kU6Aq7DV-18" value="" style="endArrow=none;html=1;rounded=0;exitX=0.55;exitY=0.95;exitDx=0;exitDy=0;exitPerimeter=0;startArrow=none;" edge="1" parent="1" source="FsZnFzZRh3o9kU6Aq7DV-13">
          <mxGeometry width="50" height="50" relative="1" as="geometry">
            <mxPoint x="400" y="450" as="sourcePoint" />
            <mxPoint x="450" y="520" as="targetPoint" />
            <Array as="points">
              <mxPoint x="450" y="520" />
            </Array>
          </mxGeometry>
        </mxCell>
        <mxCell id="FsZnFzZRh3o9kU6Aq7DV-13" value="" style="fontColor=#0066CC;verticalAlign=top;verticalLabelPosition=bottom;labelPosition=center;align=center;html=1;outlineConnect=0;fillColor=#CCCCCC;strokeColor=#6881B3;gradientColor=none;gradientDirection=north;strokeWidth=2;shape=mxgraph.networks.comm_link;" vertex="1" parent="1">
          <mxGeometry x="417.5" y="425" width="20" height="70" as="geometry" />
        </mxCell>
        <mxCell id="FsZnFzZRh3o9kU6Aq7DV-19" value="" style="endArrow=none;html=1;rounded=0;exitX=0.55;exitY=0.95;exitDx=0;exitDy=0;exitPerimeter=0;" edge="1" parent="1" source="FsZnFzZRh3o9kU6Aq7DV-2" target="FsZnFzZRh3o9kU6Aq7DV-13">
          <mxGeometry width="50" height="50" relative="1" as="geometry">
            <mxPoint x="386" y="356" as="sourcePoint" />
            <mxPoint x="450" y="520" as="targetPoint" />
            <Array as="points" />
          </mxGeometry>
        </mxCell>
        <mxCell id="FsZnFzZRh3o9kU6Aq7DV-20" value="" style="endArrow=none;html=1;rounded=0;startArrow=none;entryX=0.55;entryY=0.95;entryDx=0;entryDy=0;entryPerimeter=0;" edge="1" parent="1" source="FsZnFzZRh3o9kU6Aq7DV-14" target="FsZnFzZRh3o9kU6Aq7DV-3">
          <mxGeometry width="50" height="50" relative="1" as="geometry">
            <mxPoint x="500" y="410" as="sourcePoint" />
            <mxPoint x="550" y="360" as="targetPoint" />
          </mxGeometry>
        </mxCell>
        <mxCell id="FsZnFzZRh3o9kU6Aq7DV-14" value="" style="fontColor=#0066CC;verticalAlign=top;verticalLabelPosition=bottom;labelPosition=center;align=center;html=1;outlineConnect=0;fillColor=#CCCCCC;strokeColor=#6881B3;gradientColor=none;gradientDirection=north;strokeWidth=2;shape=mxgraph.networks.comm_link;" vertex="1" parent="1">
          <mxGeometry x="495" y="420" width="20" height="80" as="geometry" />
        </mxCell>
        <mxCell id="FsZnFzZRh3o9kU6Aq7DV-21" value="" style="endArrow=none;html=1;rounded=0;" edge="1" parent="1" source="FsZnFzZRh3o9kU6Aq7DV-6" target="FsZnFzZRh3o9kU6Aq7DV-14">
          <mxGeometry width="50" height="50" relative="1" as="geometry">
            <mxPoint x="480.4545454545455" y="530" as="sourcePoint" />
            <mxPoint x="550" y="360" as="targetPoint" />
          </mxGeometry>
        </mxCell>
        <mxCell id="FsZnFzZRh3o9kU6Aq7DV-22" value="" style="endArrow=none;html=1;rounded=0;startArrow=none;" edge="1" parent="1" source="FsZnFzZRh3o9kU6Aq7DV-15" target="FsZnFzZRh3o9kU6Aq7DV-4">
          <mxGeometry width="50" height="50" relative="1" as="geometry">
            <mxPoint x="520" y="550" as="sourcePoint" />
            <mxPoint x="710" y="350" as="targetPoint" />
          </mxGeometry>
        </mxCell>
        <mxCell id="FsZnFzZRh3o9kU6Aq7DV-15" value="" style="fontColor=#0066CC;verticalAlign=top;verticalLabelPosition=bottom;labelPosition=center;align=center;html=1;outlineConnect=0;fillColor=#CCCCCC;strokeColor=#6881B3;gradientColor=none;gradientDirection=north;strokeWidth=2;shape=mxgraph.networks.comm_link;" vertex="1" parent="1">
          <mxGeometry x="560" y="450" width="20" height="80" as="geometry" />
        </mxCell>
        <mxCell id="FsZnFzZRh3o9kU6Aq7DV-24" value="" style="endArrow=none;html=1;rounded=0;" edge="1" parent="1" target="FsZnFzZRh3o9kU6Aq7DV-15">
          <mxGeometry width="50" height="50" relative="1" as="geometry">
            <mxPoint x="520" y="550" as="sourcePoint" />
            <mxPoint x="710" y="350" as="targetPoint" />
          </mxGeometry>
        </mxCell>
        <mxCell id="FsZnFzZRh3o9kU6Aq7DV-25" value="防火墙" style="text;html=1;align=center;verticalAlign=middle;resizable=0;points=[];autosize=1;strokeColor=#B20000;fillColor=#e51400;fontColor=#ffffff;" vertex="1" parent="1">
          <mxGeometry x="535" y="560" width="50" height="20" as="geometry" />
        </mxCell>
        <mxCell id="FsZnFzZRh3o9kU6Aq7DV-26" value="" style="fontColor=#ffffff;verticalAlign=top;verticalLabelPosition=bottom;labelPosition=center;align=center;html=1;outlineConnect=0;fillColor=#a20025;strokeColor=#6F0000;gradientDirection=north;strokeWidth=2;shape=mxgraph.networks.web_server;" vertex="1" parent="1">
          <mxGeometry x="417.5" y="680" width="105" height="105" as="geometry" />
        </mxCell>
        <mxCell id="FsZnFzZRh3o9kU6Aq7DV-27" value="上网行为管理" style="text;html=1;align=center;verticalAlign=middle;resizable=0;points=[];autosize=1;strokeColor=#B20000;fillColor=#e51400;fontColor=#ffffff;" vertex="1" parent="1">
          <mxGeometry x="535" y="720" width="90" height="20" as="geometry" />
        </mxCell>
        <mxCell id="FsZnFzZRh3o9kU6Aq7DV-28" value="" style="endArrow=none;html=1;rounded=0;entryX=0.5;entryY=1;entryDx=0;entryDy=0;entryPerimeter=0;" edge="1" parent="1" source="FsZnFzZRh3o9kU6Aq7DV-26" target="FsZnFzZRh3o9kU6Aq7DV-6">
          <mxGeometry width="50" height="50" relative="1" as="geometry">
            <mxPoint x="400" y="750" as="sourcePoint" />
            <mxPoint x="450" y="700" as="targetPoint" />
          </mxGeometry>
        </mxCell>
        <mxCell id="FsZnFzZRh3o9kU6Aq7DV-29" value="" style="fontColor=#0066CC;verticalAlign=top;verticalLabelPosition=bottom;labelPosition=center;align=center;html=1;outlineConnect=0;fillColor=#CCCCCC;strokeColor=#6881B3;gradientColor=none;gradientDirection=north;strokeWidth=2;shape=mxgraph.networks.switch;" vertex="1" parent="1">
          <mxGeometry x="250" y="880" width="100" height="30" as="geometry" />
        </mxCell>
        <mxCell id="FsZnFzZRh3o9kU6Aq7DV-30" value="" style="fontColor=#0066CC;verticalAlign=top;verticalLabelPosition=bottom;labelPosition=center;align=center;html=1;outlineConnect=0;fillColor=#CCCCCC;strokeColor=#6881B3;gradientColor=none;gradientDirection=north;strokeWidth=2;shape=mxgraph.networks.switch;" vertex="1" parent="1">
          <mxGeometry x="250" y="910" width="100" height="30" as="geometry" />
        </mxCell>
        <mxCell id="FsZnFzZRh3o9kU6Aq7DV-31" value="" style="fontColor=#0066CC;verticalAlign=top;verticalLabelPosition=bottom;labelPosition=center;align=center;html=1;outlineConnect=0;fillColor=#CCCCCC;strokeColor=#6881B3;gradientColor=none;gradientDirection=north;strokeWidth=2;shape=mxgraph.networks.switch;" vertex="1" parent="1">
          <mxGeometry x="250" y="940" width="100" height="30" as="geometry" />
        </mxCell>
        <mxCell id="FsZnFzZRh3o9kU6Aq7DV-36" value="" style="fontColor=#0066CC;verticalAlign=top;verticalLabelPosition=bottom;labelPosition=center;align=center;html=1;outlineConnect=0;fillColor=#CCCCCC;strokeColor=#6881B3;gradientColor=none;gradientDirection=north;strokeWidth=2;shape=mxgraph.networks.switch;" vertex="1" parent="1">
          <mxGeometry x="520" y="880" width="100" height="30" as="geometry" />
        </mxCell>
        <mxCell id="FsZnFzZRh3o9kU6Aq7DV-37" value="" style="fontColor=#0066CC;verticalAlign=top;verticalLabelPosition=bottom;labelPosition=center;align=center;html=1;outlineConnect=0;fillColor=#CCCCCC;strokeColor=#6881B3;gradientColor=none;gradientDirection=north;strokeWidth=2;shape=mxgraph.networks.switch;" vertex="1" parent="1">
          <mxGeometry x="520" y="910" width="100" height="30" as="geometry" />
        </mxCell>
        <mxCell id="FsZnFzZRh3o9kU6Aq7DV-38" value="" style="fontColor=#0066CC;verticalAlign=top;verticalLabelPosition=bottom;labelPosition=center;align=center;html=1;outlineConnect=0;fillColor=#CCCCCC;strokeColor=#6881B3;gradientColor=none;gradientDirection=north;strokeWidth=2;shape=mxgraph.networks.switch;" vertex="1" parent="1">
          <mxGeometry x="520" y="940" width="100" height="30" as="geometry" />
        </mxCell>
        <mxCell id="FsZnFzZRh3o9kU6Aq7DV-39" value="" style="endArrow=none;html=1;rounded=0;" edge="1" parent="1">
          <mxGeometry width="50" height="50" relative="1" as="geometry">
            <mxPoint x="180" y="827" as="sourcePoint" />
            <mxPoint x="590" y="827" as="targetPoint" />
          </mxGeometry>
        </mxCell>
        <mxCell id="FsZnFzZRh3o9kU6Aq7DV-40" value="" style="endArrow=none;html=1;rounded=0;entryX=0.5;entryY=0.94;entryDx=0;entryDy=0;entryPerimeter=0;" edge="1" parent="1" target="FsZnFzZRh3o9kU6Aq7DV-26">
          <mxGeometry width="50" height="50" relative="1" as="geometry">
            <mxPoint x="470" y="830" as="sourcePoint" />
            <mxPoint x="450" y="800" as="targetPoint" />
          </mxGeometry>
        </mxCell>
        <mxCell id="FsZnFzZRh3o9kU6Aq7DV-41" value="" style="endArrow=none;html=1;rounded=0;exitX=0.5;exitY=0;exitDx=0;exitDy=0;exitPerimeter=0;" edge="1" parent="1" source="FsZnFzZRh3o9kU6Aq7DV-29">
          <mxGeometry width="50" height="50" relative="1" as="geometry">
            <mxPoint x="400" y="850" as="sourcePoint" />
            <mxPoint x="300" y="830" as="targetPoint" />
          </mxGeometry>
        </mxCell>
        <mxCell id="FsZnFzZRh3o9kU6Aq7DV-43" value="" style="endArrow=none;html=1;rounded=0;exitX=1;exitY=0.5;exitDx=0;exitDy=0;exitPerimeter=0;" edge="1" parent="1" source="FsZnFzZRh3o9kU6Aq7DV-37">
          <mxGeometry width="50" height="50" relative="1" as="geometry">
            <mxPoint x="670" y="950" as="sourcePoint" />
            <mxPoint x="730" y="925" as="targetPoint" />
          </mxGeometry>
        </mxCell>
        <mxCell id="FsZnFzZRh3o9kU6Aq7DV-46" value="" style="shape=image;verticalLabelPosition=bottom;verticalAlign=top;imageAspect=0;aspect=fixed;image=data:image/svg+xml,PHN2ZyB4bWxucz0iaHR0cDovL3d3dy53My5vcmcvMjAwMC9zdmciIHhtbG5zOnhsaW5rPSJodHRwOi8vd3d3LnczLm9yZy8xOTk5L3hsaW5rIiB0PSIxNjQ1MDY2MTUyNTA4IiBjbGFzcz0iaWNvbiIgdmlld0JveD0iMCAwIDEwMjQgMTAyNCIgdmVyc2lvbj0iMS4xIiBwLWlkPSIyMzY4IiB3aWR0aD0iMjAwIiBoZWlnaHQ9IjIwMCI+PGRlZnM+PHN0eWxlIHR5cGU9InRleHQvY3NzIi8+PC9kZWZzPjxwYXRoIGQ9Ik02OTMuMTIgMzQ3LjI2NGMxMS43NzYgMCAyMy4zNiAwLjg5NiAzNS4wMDggMi4xNzYtMzEuMzYtMTQ2LjA0OC0xODcuNDU2LTI1NC41MjgtMzY1LjY5Ni0yNTQuNTI4QzE2My4yIDk0LjkxMiAwIDIzMC42NTYgMCA0MDMuMTM2YzAgOTkuNTIgNTQuMjcyIDE4MS4yNDggMTQ1LjAyNCAyNDQuNzM2TDEwOC44IDc1Ni44NjRsMTI2LjcyLTYzLjQ4OGM0NS4zMTIgOC44OTYgODEuNjY0IDE4LjExMiAxMjYuOTEyIDE4LjExMiAxMS4zOTIgMCAyMi42NTYtMC41MTIgMzMuNzkyLTEuMzQ0LTcuMDQtMjQuMjU2LTExLjItNDkuNi0xMS4yLTc2LjAzMkMzODUuMDg4IDQ3NS43NzYgNTIxLjAyNCAzNDcuMjY0IDY5My4xMiAzNDcuMjY0ek00OTguMzA0IDI0OS4wMjRjMjcuMzkyIDAgNDUuMzc2IDE3Ljk4NCA0NS4zNzYgNDUuMjQ4IDAgMjcuMTM2LTE3Ljk4NCA0NS4zMTItNDUuMzc2IDQ1LjMxMi0yNy4wNzIgMC01NC4zMzYtMTguMTc2LTU0LjMzNi00NS4zMTJDNDQzLjk2OCAyNjYuOTQ0IDQ3MS4xNjggMjQ5LjAyNCA0OTguMzA0IDI0OS4wMjR6TTI0NC42NzIgMzM5LjU4NGMtMjcuMiAwLTU0LjU5Mi0xOC4xNzYtNTQuNTkyLTQ1LjMxMiAwLTI3LjI2NCAyNy4zOTItNDUuMjQ4IDU0LjU5Mi00NS4yNDhTMjg5LjkyIDI2Ni45NDQgMjg5LjkyIDI5NC4yNzJDMjg5LjkyIDMyMS40MDggMjcxLjg3MiAzMzkuNTg0IDI0NC42NzIgMzM5LjU4NHpNMTAyNCA2MjkuNzZjMC0xNDQuODk2LTE0NS4wMjQtMjYyLjk3Ni0zMDcuOTA0LTI2Mi45NzYtMTcyLjQ4IDAtMzA4LjIyNCAxMTguMTQ0LTMwOC4yMjQgMjYyLjk3NiAwIDE0NS4yOCAxMzUuODA4IDI2Mi45NzYgMzA4LjIyNCAyNjIuOTc2IDM2LjA5NiAwIDcyLjUxMi05LjAyNCAxMDguNzM2LTE4LjExMmw5OS4zOTIgNTQuNTI4LTI3LjI2NC05MC42MjRDOTY5LjcyOCA3ODMuODcyIDEwMjQgNzExLjQ4OCAxMDI0IDYyOS43NnpNNjE2LjEyOCA1ODQuMzg0Yy0xNy45ODQgMC0zNi4yMjQtMTcuOTItMzYuMjI0LTM2LjIyNCAwLTE4LjA0OCAxOC4yNC0zNi4yMjQgMzYuMjI0LTM2LjIyNCAyNy41MiAwIDQ1LjM3NiAxOC4xNzYgNDUuMzc2IDM2LjIyNEM2NjEuNTA0IDU2Ni40NjQgNjQzLjY0OCA1ODQuMzg0IDYxNi4xMjggNTg0LjM4NHpNODE1LjQ4OCA1ODQuMzg0Yy0xNy44NTYgMC0zNi4wMzItMTcuOTItMzYuMDMyLTM2LjIyNCAwLTE4LjA0OCAxOC4xMTItMzYuMjI0IDM2LjAzMi0zNi4yMjQgMjcuMjY0IDAgNDUuMzc2IDE4LjE3NiA0NS4zNzYgMzYuMjI0Qzg2MC44NjQgNTY2LjQ2NCA4NDIuNzUyIDU4NC4zODQgODE1LjQ4OCA1ODQuMzg0eiIgcC1pZD0iMjM2OSIvPjwvc3ZnPg==" vertex="1" parent="1">
          <mxGeometry x="90" y="710" width="40" height="40" as="geometry" />
        </mxCell>
        <mxCell id="FsZnFzZRh3o9kU6Aq7DV-50" value="" style="shape=image;verticalLabelPosition=bottom;labelBackgroundColor=default;verticalAlign=top;aspect=fixed;imageAspect=0;image=data:image/svg+xml,PHN2ZyB4bWxucz0iaHR0cDovL3d3dy53My5vcmcvMjAwMC9zdmciIHhtbG5zOnhsaW5rPSJodHRwOi8vd3d3LnczLm9yZy8xOTk5L3hsaW5rIiB0PSIxNjQ1MDY2MjEzNjE4IiBjbGFzcz0iaWNvbiIgdmlld0JveD0iMCAwIDEwMjQgMTAyNCIgdmVyc2lvbj0iMS4xIiBwLWlkPSIzMzU2IiB3aWR0aD0iMjAwIiBoZWlnaHQ9IjIwMCI+PGRlZnM+PHN0eWxlIHR5cGU9InRleHQvY3NzIi8+PC9kZWZzPjxwYXRoIGQ9Ik05MDYuNzcgMjUuODNIMTExYTg1Ljg3IDg1Ljg3IDAgMCAwLTg2LjIzIDg1LjUydjc5Ni41YTg1Ljg3IDg1Ljg3IDAgMCAwIDg1LjUyIDg2LjIzaDc5Ni41QTg1Ljg4IDg1Ljg4IDAgMCAwIDk5MyA5MDguNTZWMTEyLjIzYTg1Ljg4IDg1Ljg4IDAgMCAwLTg1LjM0LTg2LjR6IG0tNzEuOTQgNjU5Ljg0aC02N2E4OC4xNyA4OC4xNyAwIDAgMS0xNzIuNjMgMEgxNzMuNGEyNCAyNCAwIDAgMSAwLTQ4aDQyMS43OWE4OC4xNyA4OC4xNyAwIDAgMSAxNzIuNjMgMEg4MzVhMjQgMjQgMCAxIDEgMCA0OHogbTIuNDYtMzA4LjIzSDQ1OC43MWE4OC4xNyA4OC4xNyAwIDAgMS0xNzIuNjMgMEgxNzAuOTNhMjIuNTcgMjIuNTcgMCAwIDEtMjQtMjEuMDcgMjMuNTQgMjMuNTQgMCAwIDEgMC0yLjkxIDIxLjg2IDIxLjg2IDAgMCAxIDI0LTE5LjIyaDExNWE4Mi41MiA4Mi41MiAwIDAgMSA4MS40Ny02Ny4xOCA4OC4xNSA4OC4xNSAwIDAgMSA4Ni4yMiA2Ny4xOGgzNzguOTFhMzIuNDUgMzIuNDUgMCAwIDEgMjguNzUgMTkuMjIgMjIuNTggMjIuNTggMCAwIDEtMjEuMDcgMjQgMjMuNzEgMjMuNzEgMCAwIDEtMi45Mi0wLjAyeiIgcC1pZD0iMzM1NyIgZmlsbD0iI2Q4MWUwNiIvPjwvc3ZnPg==;" vertex="1" parent="1">
          <mxGeometry x="730" y="875" width="100" height="100" as="geometry" />
        </mxCell>
        <mxCell id="FsZnFzZRh3o9kU6Aq7DV-51" value="网闸" style="text;html=1;align=center;verticalAlign=middle;resizable=0;points=[];autosize=1;strokeColor=#B20000;fillColor=#e51400;fontColor=#ffffff;" vertex="1" parent="1">
          <mxGeometry x="760" y="840" width="40" height="20" as="geometry" />
        </mxCell>
        <mxCell id="FsZnFzZRh3o9kU6Aq7DV-52" value="" style="shape=image;verticalLabelPosition=bottom;labelBackgroundColor=default;verticalAlign=top;aspect=fixed;imageAspect=0;image=data:image/svg+xml,PHN2ZyB4bWxucz0iaHR0cDovL3d3dy53My5vcmcvMjAwMC9zdmciIHhtbG5zOnhsaW5rPSJodHRwOi8vd3d3LnczLm9yZy8xOTk5L3hsaW5rIiB0PSIxNjQ1MDY2NTU5MDQ5IiBjbGFzcz0iaWNvbiIgdmlld0JveD0iMCAwIDEwMjQgMTAyNCIgdmVyc2lvbj0iMS4xIiBwLWlkPSIzOTYzIiB3aWR0aD0iMjAwIiBoZWlnaHQ9IjIwMCI+PGRlZnM+PHN0eWxlIHR5cGU9InRleHQvY3NzIi8+PC9kZWZzPjxwYXRoIGQ9Ik0yMTMuMzEyIDQ2OS4zMTJoNTk3LjM3NnYtMjU2SDIxMy4zMTJ2MjU2ek04OTYgMTcwLjY4OHY2ODIuNjI0YTQyLjY4OCA0Mi42ODggMCAwIDEtNDIuNjg4IDQyLjY4OEgxNzAuNjg4QTQyLjY4OCA0Mi42ODggMCAwIDEgMTI4IDg1My4zMTJWMTcwLjY4OEMxMjggMTQ3LjA3MiAxNDcuMDcyIDEyOCAxNzAuNjg4IDEyOGg2ODIuNjI0YzIzLjYxNiAwIDQyLjY4OCAxOS4wNzIgNDIuNjg4IDQyLjY4OHogbS04NS4zMTIgMzg0SDIxMy4zMTJ2MjU2aDU5Ny4zNzZ2LTI1NnogbS01MTIgODUuMzEyaDEyOHY4NS4zMTJoLTEyOFY2NDB6IG0wLTM0MS4zMTJoMTI4VjM4NGgtMTI4VjI5OC42ODh6IiBwLWlkPSIzOTY0Ii8+PC9zdmc+;" vertex="1" parent="1">
          <mxGeometry x="890" y="875" width="110" height="110" as="geometry" />
        </mxCell>
        <mxCell id="FsZnFzZRh3o9kU6Aq7DV-53" value="" style="endArrow=none;html=1;rounded=0;exitX=1;exitY=0.5;exitDx=0;exitDy=0;" edge="1" parent="1" source="FsZnFzZRh3o9kU6Aq7DV-50">
          <mxGeometry width="50" height="50" relative="1" as="geometry">
            <mxPoint x="760" y="950" as="sourcePoint" />
            <mxPoint x="900" y="925" as="targetPoint" />
          </mxGeometry>
        </mxCell>
        <mxCell id="FsZnFzZRh3o9kU6Aq7DV-54" value="数据上传前置机" style="text;html=1;align=center;verticalAlign=middle;resizable=0;points=[];autosize=1;strokeColor=none;fillColor=none;" vertex="1" parent="1">
          <mxGeometry x="892.5" y="975" width="100" height="20" as="geometry" />
        </mxCell>
        <mxCell id="FsZnFzZRh3o9kU6Aq7DV-55" value="区域平台" style="ellipse;shape=cloud;whiteSpace=wrap;html=1;" vertex="1" parent="1">
          <mxGeometry x="885" y="687" width="100" height="53" as="geometry" />
        </mxCell>
        <mxCell id="FsZnFzZRh3o9kU6Aq7DV-56" value="阳光医药" style="ellipse;shape=cloud;whiteSpace=wrap;html=1;" vertex="1" parent="1">
          <mxGeometry x="887.5" y="720" width="92.5" height="40" as="geometry" />
        </mxCell>
        <mxCell id="FsZnFzZRh3o9kU6Aq7DV-57" value="" style="endArrow=none;html=1;rounded=0;exitX=0.5;exitY=0.182;exitDx=0;exitDy=0;exitPerimeter=0;entryX=0.55;entryY=0.95;entryDx=0;entryDy=0;entryPerimeter=0;startArrow=none;" edge="1" parent="1" source="FsZnFzZRh3o9kU6Aq7DV-60" target="FsZnFzZRh3o9kU6Aq7DV-56">
          <mxGeometry width="50" height="50" relative="1" as="geometry">
            <mxPoint x="760" y="850" as="sourcePoint" />
            <mxPoint x="970" y="810" as="targetPoint" />
          </mxGeometry>
        </mxCell>
        <mxCell id="FsZnFzZRh3o9kU6Aq7DV-60" value="" style="fontColor=#0066CC;verticalAlign=top;verticalLabelPosition=bottom;labelPosition=center;align=center;html=1;outlineConnect=0;fillColor=#CCCCCC;strokeColor=#6881B3;gradientColor=none;gradientDirection=north;strokeWidth=2;shape=mxgraph.networks.comm_link;direction=east;" vertex="1" parent="1">
          <mxGeometry x="927.5" y="785" width="30" height="80" as="geometry" />
        </mxCell>
        <mxCell id="FsZnFzZRh3o9kU6Aq7DV-61" value="" style="endArrow=none;html=1;rounded=0;exitX=0.5;exitY=0.182;exitDx=0;exitDy=0;exitPerimeter=0;entryX=0.55;entryY=0.95;entryDx=0;entryDy=0;entryPerimeter=0;" edge="1" parent="1" source="FsZnFzZRh3o9kU6Aq7DV-52" target="FsZnFzZRh3o9kU6Aq7DV-60">
          <mxGeometry width="50" height="50" relative="1" as="geometry">
            <mxPoint x="945" y="895.02" as="sourcePoint" />
            <mxPoint x="947.25" y="804.1500000000001" as="targetPoint" />
          </mxGeometry>
        </mxCell>
        <mxCell id="FsZnFzZRh3o9kU6Aq7DV-62" value="" style="endArrow=none;html=1;rounded=0;entryX=0.5;entryY=1;entryDx=0;entryDy=0;entryPerimeter=0;" edge="1" parent="1" target="FsZnFzZRh3o9kU6Aq7DV-38">
          <mxGeometry width="50" height="50" relative="1" as="geometry">
            <mxPoint x="570" y="1040" as="sourcePoint" />
            <mxPoint x="810" y="1100" as="targetPoint" />
          </mxGeometry>
        </mxCell>
        <mxCell id="FsZnFzZRh3o9kU6Aq7DV-63" value="" style="endArrow=none;html=1;rounded=0;" edge="1" parent="1">
          <mxGeometry width="50" height="50" relative="1" as="geometry">
            <mxPoint x="460" y="1040" as="sourcePoint" />
            <mxPoint x="870" y="1040" as="targetPoint" />
          </mxGeometry>
        </mxCell>
        <mxCell id="FsZnFzZRh3o9kU6Aq7DV-66" value="" style="endArrow=none;html=1;rounded=0;" edge="1" parent="1">
          <mxGeometry width="50" height="50" relative="1" as="geometry">
            <mxPoint x="520" y="1120" as="sourcePoint" />
            <mxPoint x="520" y="1040" as="targetPoint" />
          </mxGeometry>
        </mxCell>
        <mxCell id="FsZnFzZRh3o9kU6Aq7DV-68" value="" style="fontColor=#0066CC;verticalAlign=top;verticalLabelPosition=bottom;labelPosition=center;align=center;html=1;outlineConnect=0;fillColor=#CCCCCC;strokeColor=#6881B3;gradientColor=none;gradientDirection=north;strokeWidth=2;shape=mxgraph.networks.switch;" vertex="1" parent="1">
          <mxGeometry x="470" y="1120" width="90" height="20" as="geometry" />
        </mxCell>
        <mxCell id="FsZnFzZRh3o9kU6Aq7DV-78" value="" style="endArrow=none;dashed=1;html=1;rounded=0;entryX=0;entryY=0.5;entryDx=0;entryDy=0;entryPerimeter=0;" edge="1" parent="1" target="FsZnFzZRh3o9kU6Aq7DV-68">
          <mxGeometry width="50" height="50" relative="1" as="geometry">
            <mxPoint x="450" y="1130" as="sourcePoint" />
            <mxPoint x="810" y="1100" as="targetPoint" />
          </mxGeometry>
        </mxCell>
        <mxCell id="FsZnFzZRh3o9kU6Aq7DV-79" value="" style="endArrow=none;dashed=1;html=1;rounded=0;" edge="1" parent="1">
          <mxGeometry width="50" height="50" relative="1" as="geometry">
            <mxPoint x="450" y="1260" as="sourcePoint" />
            <mxPoint x="450" y="1130" as="targetPoint" />
          </mxGeometry>
        </mxCell>
        <mxCell id="FsZnFzZRh3o9kU6Aq7DV-80" value="" style="endArrow=none;dashed=1;html=1;rounded=0;" edge="1" parent="1">
          <mxGeometry width="50" height="50" relative="1" as="geometry">
            <mxPoint x="450" y="1260" as="sourcePoint" />
            <mxPoint x="580" y="1260" as="targetPoint" />
          </mxGeometry>
        </mxCell>
        <mxCell id="FsZnFzZRh3o9kU6Aq7DV-81" value="" style="endArrow=none;dashed=1;html=1;rounded=0;entryX=1;entryY=0.5;entryDx=0;entryDy=0;entryPerimeter=0;" edge="1" parent="1" target="FsZnFzZRh3o9kU6Aq7DV-68">
          <mxGeometry width="50" height="50" relative="1" as="geometry">
            <mxPoint x="580" y="1130" as="sourcePoint" />
            <mxPoint x="810" y="1100" as="targetPoint" />
          </mxGeometry>
        </mxCell>
        <mxCell id="FsZnFzZRh3o9kU6Aq7DV-82" value="" style="endArrow=none;dashed=1;html=1;rounded=0;" edge="1" parent="1">
          <mxGeometry width="50" height="50" relative="1" as="geometry">
            <mxPoint x="580" y="1260" as="sourcePoint" />
            <mxPoint x="580" y="1130" as="targetPoint" />
          </mxGeometry>
        </mxCell>
        <mxCell id="FsZnFzZRh3o9kU6Aq7DV-83" value="" style="fontColor=#0066CC;verticalAlign=top;verticalLabelPosition=bottom;labelPosition=center;align=center;html=1;outlineConnect=0;fillColor=#CCCCCC;strokeColor=#6881B3;gradientColor=none;gradientDirection=north;strokeWidth=2;shape=mxgraph.networks.switch;" vertex="1" parent="1">
          <mxGeometry x="630" y="1120" width="90" height="20" as="geometry" />
        </mxCell>
        <mxCell id="FsZnFzZRh3o9kU6Aq7DV-84" value="" style="endArrow=none;dashed=1;html=1;rounded=0;entryX=0;entryY=0.5;entryDx=0;entryDy=0;entryPerimeter=0;" edge="1" parent="1" target="FsZnFzZRh3o9kU6Aq7DV-83">
          <mxGeometry width="50" height="50" relative="1" as="geometry">
            <mxPoint x="610" y="1130" as="sourcePoint" />
            <mxPoint x="970" y="1100" as="targetPoint" />
          </mxGeometry>
        </mxCell>
        <mxCell id="FsZnFzZRh3o9kU6Aq7DV-85" value="" style="endArrow=none;dashed=1;html=1;rounded=0;" edge="1" parent="1">
          <mxGeometry width="50" height="50" relative="1" as="geometry">
            <mxPoint x="610" y="1260" as="sourcePoint" />
            <mxPoint x="610" y="1130" as="targetPoint" />
          </mxGeometry>
        </mxCell>
        <mxCell id="FsZnFzZRh3o9kU6Aq7DV-86" value="" style="endArrow=none;dashed=1;html=1;rounded=0;" edge="1" parent="1">
          <mxGeometry width="50" height="50" relative="1" as="geometry">
            <mxPoint x="610" y="1260" as="sourcePoint" />
            <mxPoint x="740" y="1260" as="targetPoint" />
          </mxGeometry>
        </mxCell>
        <mxCell id="FsZnFzZRh3o9kU6Aq7DV-87" value="" style="endArrow=none;dashed=1;html=1;rounded=0;entryX=1;entryY=0.5;entryDx=0;entryDy=0;entryPerimeter=0;" edge="1" parent="1" target="FsZnFzZRh3o9kU6Aq7DV-83">
          <mxGeometry width="50" height="50" relative="1" as="geometry">
            <mxPoint x="740" y="1130" as="sourcePoint" />
            <mxPoint x="970" y="1100" as="targetPoint" />
          </mxGeometry>
        </mxCell>
        <mxCell id="FsZnFzZRh3o9kU6Aq7DV-88" value="" style="endArrow=none;dashed=1;html=1;rounded=0;" edge="1" parent="1">
          <mxGeometry width="50" height="50" relative="1" as="geometry">
            <mxPoint x="740" y="1260" as="sourcePoint" />
            <mxPoint x="740" y="1130" as="targetPoint" />
          </mxGeometry>
        </mxCell>
        <mxCell id="FsZnFzZRh3o9kU6Aq7DV-89" value="" style="fontColor=#0066CC;verticalAlign=top;verticalLabelPosition=bottom;labelPosition=center;align=center;html=1;outlineConnect=0;fillColor=#CCCCCC;strokeColor=#6881B3;gradientColor=none;gradientDirection=north;strokeWidth=2;shape=mxgraph.networks.switch;" vertex="1" parent="1">
          <mxGeometry x="790" y="1120" width="90" height="20" as="geometry" />
        </mxCell>
        <mxCell id="FsZnFzZRh3o9kU6Aq7DV-90" value="" style="endArrow=none;dashed=1;html=1;rounded=0;entryX=0;entryY=0.5;entryDx=0;entryDy=0;entryPerimeter=0;" edge="1" parent="1" target="FsZnFzZRh3o9kU6Aq7DV-89">
          <mxGeometry width="50" height="50" relative="1" as="geometry">
            <mxPoint x="770" y="1130" as="sourcePoint" />
            <mxPoint x="1130" y="1100" as="targetPoint" />
          </mxGeometry>
        </mxCell>
        <mxCell id="FsZnFzZRh3o9kU6Aq7DV-91" value="" style="endArrow=none;dashed=1;html=1;rounded=0;" edge="1" parent="1">
          <mxGeometry width="50" height="50" relative="1" as="geometry">
            <mxPoint x="770" y="1260" as="sourcePoint" />
            <mxPoint x="770" y="1130" as="targetPoint" />
          </mxGeometry>
        </mxCell>
        <mxCell id="FsZnFzZRh3o9kU6Aq7DV-92" value="" style="endArrow=none;dashed=1;html=1;rounded=0;" edge="1" parent="1">
          <mxGeometry width="50" height="50" relative="1" as="geometry">
            <mxPoint x="770" y="1260" as="sourcePoint" />
            <mxPoint x="900" y="1260" as="targetPoint" />
          </mxGeometry>
        </mxCell>
        <mxCell id="FsZnFzZRh3o9kU6Aq7DV-93" value="" style="endArrow=none;dashed=1;html=1;rounded=0;entryX=1;entryY=0.5;entryDx=0;entryDy=0;entryPerimeter=0;" edge="1" parent="1" target="FsZnFzZRh3o9kU6Aq7DV-89">
          <mxGeometry width="50" height="50" relative="1" as="geometry">
            <mxPoint x="900" y="1130" as="sourcePoint" />
            <mxPoint x="1130" y="1100" as="targetPoint" />
          </mxGeometry>
        </mxCell>
        <mxCell id="FsZnFzZRh3o9kU6Aq7DV-94" value="" style="endArrow=none;dashed=1;html=1;rounded=0;" edge="1" parent="1">
          <mxGeometry width="50" height="50" relative="1" as="geometry">
            <mxPoint x="900" y="1260" as="sourcePoint" />
            <mxPoint x="900" y="1130" as="targetPoint" />
          </mxGeometry>
        </mxCell>
        <mxCell id="FsZnFzZRh3o9kU6Aq7DV-95" value="" style="endArrow=none;html=1;rounded=0;exitX=0.5;exitY=0;exitDx=0;exitDy=0;exitPerimeter=0;" edge="1" parent="1" source="FsZnFzZRh3o9kU6Aq7DV-83">
          <mxGeometry width="50" height="50" relative="1" as="geometry">
            <mxPoint x="530" y="1130" as="sourcePoint" />
            <mxPoint x="675" y="1040" as="targetPoint" />
          </mxGeometry>
        </mxCell>
        <mxCell id="FsZnFzZRh3o9kU6Aq7DV-96" value="" style="endArrow=none;html=1;rounded=0;exitX=0.5;exitY=0;exitDx=0;exitDy=0;exitPerimeter=0;" edge="1" parent="1" source="FsZnFzZRh3o9kU6Aq7DV-89">
          <mxGeometry width="50" height="50" relative="1" as="geometry">
            <mxPoint x="540" y="1140" as="sourcePoint" />
            <mxPoint x="835" y="1040" as="targetPoint" />
          </mxGeometry>
        </mxCell>
        <mxCell id="FsZnFzZRh3o9kU6Aq7DV-97" value="" style="fontColor=#0066CC;verticalAlign=top;verticalLabelPosition=bottom;labelPosition=center;align=center;html=1;outlineConnect=0;fillColor=#CCCCCC;strokeColor=#6881B3;gradientColor=none;gradientDirection=north;strokeWidth=2;shape=mxgraph.networks.pc;dashed=1;" vertex="1" parent="1">
          <mxGeometry x="460" y="1160" width="50" height="30" as="geometry" />
        </mxCell>
        <mxCell id="FsZnFzZRh3o9kU6Aq7DV-100" value="" style="fontColor=#0066CC;verticalAlign=top;verticalLabelPosition=bottom;labelPosition=center;align=center;html=1;outlineConnect=0;fillColor=#CCCCCC;strokeColor=#6881B3;gradientColor=none;gradientDirection=north;strokeWidth=2;shape=mxgraph.networks.pc;dashed=1;" vertex="1" parent="1">
          <mxGeometry x="520" y="1160" width="50" height="30" as="geometry" />
        </mxCell>
        <mxCell id="FsZnFzZRh3o9kU6Aq7DV-101" value="" style="fontColor=#0066CC;verticalAlign=top;verticalLabelPosition=bottom;labelPosition=center;align=center;html=1;outlineConnect=0;fillColor=#CCCCCC;strokeColor=#6881B3;gradientColor=none;gradientDirection=north;strokeWidth=2;shape=mxgraph.networks.pc;dashed=1;" vertex="1" parent="1">
          <mxGeometry x="460" y="1200" width="50" height="30" as="geometry" />
        </mxCell>
        <mxCell id="FsZnFzZRh3o9kU6Aq7DV-102" value="" style="fontColor=#0066CC;verticalAlign=top;verticalLabelPosition=bottom;labelPosition=center;align=center;html=1;outlineConnect=0;fillColor=#CCCCCC;strokeColor=#6881B3;gradientColor=none;gradientDirection=north;strokeWidth=2;shape=mxgraph.networks.pc;dashed=1;" vertex="1" parent="1">
          <mxGeometry x="520" y="1200" width="50" height="30" as="geometry" />
        </mxCell>
        <mxCell id="FsZnFzZRh3o9kU6Aq7DV-103" value="" style="fontColor=#0066CC;verticalAlign=top;verticalLabelPosition=bottom;labelPosition=center;align=center;html=1;outlineConnect=0;fillColor=#CCCCCC;strokeColor=#6881B3;gradientColor=none;gradientDirection=north;strokeWidth=2;shape=mxgraph.networks.pc;dashed=1;" vertex="1" parent="1">
          <mxGeometry x="620" y="1160" width="50" height="30" as="geometry" />
        </mxCell>
        <mxCell id="FsZnFzZRh3o9kU6Aq7DV-104" value="" style="fontColor=#0066CC;verticalAlign=top;verticalLabelPosition=bottom;labelPosition=center;align=center;html=1;outlineConnect=0;fillColor=#CCCCCC;strokeColor=#6881B3;gradientColor=none;gradientDirection=north;strokeWidth=2;shape=mxgraph.networks.pc;dashed=1;" vertex="1" parent="1">
          <mxGeometry x="680" y="1160" width="50" height="30" as="geometry" />
        </mxCell>
        <mxCell id="FsZnFzZRh3o9kU6Aq7DV-105" value="" style="fontColor=#0066CC;verticalAlign=top;verticalLabelPosition=bottom;labelPosition=center;align=center;html=1;outlineConnect=0;fillColor=#CCCCCC;strokeColor=#6881B3;gradientColor=none;gradientDirection=north;strokeWidth=2;shape=mxgraph.networks.pc;dashed=1;" vertex="1" parent="1">
          <mxGeometry x="620" y="1200" width="50" height="30" as="geometry" />
        </mxCell>
        <mxCell id="FsZnFzZRh3o9kU6Aq7DV-106" value="" style="fontColor=#0066CC;verticalAlign=top;verticalLabelPosition=bottom;labelPosition=center;align=center;html=1;outlineConnect=0;fillColor=#CCCCCC;strokeColor=#6881B3;gradientColor=none;gradientDirection=north;strokeWidth=2;shape=mxgraph.networks.pc;dashed=1;" vertex="1" parent="1">
          <mxGeometry x="680" y="1200" width="50" height="30" as="geometry" />
        </mxCell>
        <mxCell id="FsZnFzZRh3o9kU6Aq7DV-107" value="" style="fontColor=#0066CC;verticalAlign=top;verticalLabelPosition=bottom;labelPosition=center;align=center;html=1;outlineConnect=0;fillColor=#CCCCCC;strokeColor=#6881B3;gradientColor=none;gradientDirection=north;strokeWidth=2;shape=mxgraph.networks.pc;dashed=1;" vertex="1" parent="1">
          <mxGeometry x="780" y="1160" width="50" height="30" as="geometry" />
        </mxCell>
        <mxCell id="FsZnFzZRh3o9kU6Aq7DV-108" value="" style="fontColor=#0066CC;verticalAlign=top;verticalLabelPosition=bottom;labelPosition=center;align=center;html=1;outlineConnect=0;fillColor=#CCCCCC;strokeColor=#6881B3;gradientColor=none;gradientDirection=north;strokeWidth=2;shape=mxgraph.networks.pc;dashed=1;" vertex="1" parent="1">
          <mxGeometry x="840" y="1160" width="50" height="30" as="geometry" />
        </mxCell>
        <mxCell id="FsZnFzZRh3o9kU6Aq7DV-109" value="" style="fontColor=#0066CC;verticalAlign=top;verticalLabelPosition=bottom;labelPosition=center;align=center;html=1;outlineConnect=0;fillColor=#CCCCCC;strokeColor=#6881B3;gradientColor=none;gradientDirection=north;strokeWidth=2;shape=mxgraph.networks.pc;dashed=1;" vertex="1" parent="1">
          <mxGeometry x="780" y="1200" width="50" height="30" as="geometry" />
        </mxCell>
        <mxCell id="FsZnFzZRh3o9kU6Aq7DV-110" value="" style="fontColor=#0066CC;verticalAlign=top;verticalLabelPosition=bottom;labelPosition=center;align=center;html=1;outlineConnect=0;fillColor=#CCCCCC;strokeColor=#6881B3;gradientColor=none;gradientDirection=north;strokeWidth=2;shape=mxgraph.networks.pc;dashed=1;" vertex="1" parent="1">
          <mxGeometry x="840" y="1200" width="50" height="30" as="geometry" />
        </mxCell>
        <mxCell id="FsZnFzZRh3o9kU6Aq7DV-111" value="科室接入" style="text;html=1;align=center;verticalAlign=middle;resizable=0;points=[];autosize=1;strokeColor=none;fillColor=none;fontSize=15;" vertex="1" parent="1">
          <mxGeometry x="470" y="1241" width="80" height="20" as="geometry" />
        </mxCell>
        <mxCell id="FsZnFzZRh3o9kU6Aq7DV-113" value="科室接入" style="text;html=1;align=center;verticalAlign=middle;resizable=0;points=[];autosize=1;strokeColor=none;fillColor=none;fontSize=15;" vertex="1" parent="1">
          <mxGeometry x="630" y="1240" width="80" height="20" as="geometry" />
        </mxCell>
        <mxCell id="FsZnFzZRh3o9kU6Aq7DV-114" value="科室接入" style="text;html=1;align=center;verticalAlign=middle;resizable=0;points=[];autosize=1;strokeColor=none;fillColor=none;fontSize=15;" vertex="1" parent="1">
          <mxGeometry x="790" y="1240" width="80" height="20" as="geometry" />
        </mxCell>
        <mxCell id="FsZnFzZRh3o9kU6Aq7DV-125" value="" style="endArrow=none;dashed=1;html=1;rounded=0;" edge="1" parent="1">
          <mxGeometry width="50" height="50" relative="1" as="geometry">
            <mxPoint x="70" y="860" as="sourcePoint" />
            <mxPoint x="70" y="700" as="targetPoint" />
          </mxGeometry>
        </mxCell>
        <mxCell id="FsZnFzZRh3o9kU6Aq7DV-126" value="" style="endArrow=none;dashed=1;html=1;rounded=0;" edge="1" parent="1">
          <mxGeometry width="50" height="50" relative="1" as="geometry">
            <mxPoint x="70" y="860" as="sourcePoint" />
            <mxPoint x="180" y="860" as="targetPoint" />
          </mxGeometry>
        </mxCell>
        <mxCell id="FsZnFzZRh3o9kU6Aq7DV-127" value="" style="endArrow=none;dashed=1;html=1;rounded=0;" edge="1" parent="1">
          <mxGeometry width="50" height="50" relative="1" as="geometry">
            <mxPoint x="180" y="700" as="sourcePoint" />
            <mxPoint x="70" y="700" as="targetPoint" />
          </mxGeometry>
        </mxCell>
        <mxCell id="FsZnFzZRh3o9kU6Aq7DV-128" value="" style="endArrow=none;dashed=1;html=1;rounded=0;" edge="1" parent="1">
          <mxGeometry width="50" height="50" relative="1" as="geometry">
            <mxPoint x="180" y="700" as="sourcePoint" />
            <mxPoint x="180" y="860" as="targetPoint" />
          </mxGeometry>
        </mxCell>
        <mxCell id="FsZnFzZRh3o9kU6Aq7DV-129" value="微信平台" style="text;html=1;align=center;verticalAlign=middle;resizable=0;points=[];autosize=1;strokeColor=none;fillColor=none;" vertex="1" parent="1">
          <mxGeometry x="80" y="750" width="60" height="20" as="geometry" />
        </mxCell>
        <mxCell id="FsZnFzZRh3o9kU6Aq7DV-131" value="" style="shape=image;verticalLabelPosition=bottom;labelBackgroundColor=default;verticalAlign=top;aspect=fixed;imageAspect=0;image=data:image/svg+xml,PHN2ZyB4bWxucz0iaHR0cDovL3d3dy53My5vcmcvMjAwMC9zdmciIHhtbG5zOnhsaW5rPSJodHRwOi8vd3d3LnczLm9yZy8xOTk5L3hsaW5rIiB0PSIxNjQ1MDY4NTAxODE5IiBjbGFzcz0iaWNvbiIgdmlld0JveD0iMCAwIDEwMjQgMTAyNCIgdmVyc2lvbj0iMS4xIiBwLWlkPSI5ODgyIiB3aWR0aD0iMjAwIiBoZWlnaHQ9IjIwMCI+PGRlZnM+PHN0eWxlIHR5cGU9InRleHQvY3NzIi8+PC9kZWZzPjxwYXRoIGQ9Ik03OTUuNjgyIDgwMy43NzVIMjQ1LjA0Yy0zNy4xODEgMC02Ny4zMzMtMzAuMzI1LTY3LjMzMy02Ny4zM1Y0MjAuMDA2YzAtMzcuMTc4IDMwLjE1Mi02Ny4zMzMgNjcuMzMzLTY3LjMzM2g1NTAuNjQyYzM3LjE3NyAwIDY3LjMyOSAzMC4xNTUgNjcuMzI5IDY3LjMzM3YzMTYuNDM5YzAgMzcuMDA1LTMwLjE1MiA2Ny4zMy02Ny4zMjkgNjcuMzN6TTI0NS4wNCAzODMuNjg1Yy0yMC4wNDggMC0zNi4zMjEgMTYuMjc3LTM2LjMyMSAzNi4zMjJ2MzE2LjQzOWMwIDIwLjA0NSAxNi4yNzMgMzYuMzIxIDM2LjMyMSAzNi4zMjFoNTUwLjY0MmMyMC4wNDUgMCAzNi4zMjEtMTYuMjc3IDM2LjMyMS0zNi4zMjF2LTMxNi40NGMwLTIwLjA0NS0xNi4yNzctMzYuMzIyLTM2LjMyMS0zNi4zMjJIMjQ1LjA0eiBtMCAwIiBwLWlkPSI5ODgzIi8+PHBhdGggZD0iTTcwOS42NzMgMzgzLjY4NUgzMzEuMDQ1Yy04LjU2OCAwLTE1LjU5MS03LjAyNi0xNS41OTEtMTUuNTkxVjI0NC4yMjZjMC0yMC4wNDUgMTYuMjczLTM2LjMyMiAzNi4zMjEtMzYuMzIyaDMzNy4zNGMyMC4wNDUgMCAzNi4zMjEgMTYuMjc3IDM2LjMyMSAzNi4zMjJ2MTIzLjg2OGMtMC4xNzIgOC41NjUtNy4xOTQgMTUuNTkxLTE1Ljc2MyAxNS41OTF6IG0tMzYzLjIxLTMxLjE4MmgzNDcuNjIxVjI0NC4yMjZjMC0yLjc0Mi0yLjM5OS01LjE0MS01LjEzNy01LjE0MWgtMzM3LjE3Yy0yLjc0MSAwLTUuMTQgMi4zOTgtNS4xNCA1LjE0MXYxMDguMjc4aC0wLjE3NHogbTAgME01NjMuNTM1IDczMy43MDRoLTg2LjM0OGMtNy43MTIgMC0xMy4zNjUtNy41MzktMTMuMzY1LTE1LjI0OFY2MzYuMDVoLTgwLjAwOWMtNy43MDkgMC0xNC4yMjEtNi42ODMtMTQuMjIxLTE0LjIyMXYtODguMDYxYzAtNy43MTIgNi42ODItMTIuNTA5IDE0LjIyMS0xMi41MDloODAuMDA5di04Mi41NzdjMC03LjcxMiA1LjY1My0xMy4zNjYgMTMuMzY1LTEzLjM2Nmg4Ni4zNDhjNy43MDkgMCAxMy4zNjIgNS44MjcgMTMuMzYyIDEzLjM2NnY4Mi41NzdoODAuMDA4YzcuNzEyIDAgMTQuMjIxIDQuNzk3IDE0LjIyMSAxMi41MDl2ODguMDYxYzAgNy43MDgtNi42ODIgMTQuMjIxLTE0LjIyMSAxNC4yMjFoLTgwLjAwOHY4Mi40MDZjMCA3LjcwOS01LjY1MyAxNS4yNDgtMTMuMzYyIDE1LjI0OHogbS03Mi4zLTI3LjQxNGg1OC4yNDh2LTg0LjQ2MmMwLTcuNzA5IDYuNTEzLTEzLjE5MiAxNC4wNTItMTMuMTkyaDc4LjQ2NnYtNTkuOTY0aC03OC40NjZjLTcuNzEyIDAtMTQuMDUyLTcuMzY4LTE0LjA1Mi0xNC45MDRWNDUyLjczaC01OC4yNDh2ODEuMDM4YzAgNy43MDktNi41MTMgMTQuOTA0LTE0LjA0OCAxNC45MDRoLTgwLjE4MXY1OS45NjRoODAuMTgxYzcuNzA5IDAgMTQuMDQ4IDUuNDg0IDE0LjA0OCAxMy4xOTJ2ODQuNDYyeiBtMCAwIiBwLWlkPSI5ODg0Ii8+PC9zdmc+;" vertex="1" parent="1">
          <mxGeometry x="85" y="777" width="50" height="50" as="geometry" />
        </mxCell>
        <mxCell id="FsZnFzZRh3o9kU6Aq7DV-132" value="银医系统" style="text;html=1;align=center;verticalAlign=middle;resizable=0;points=[];autosize=1;strokeColor=none;fillColor=none;" vertex="1" parent="1">
          <mxGeometry x="80" y="827" width="60" height="20" as="geometry" />
        </mxCell>
        <mxCell id="FsZnFzZRh3o9kU6Aq7DV-133" value="" style="endArrow=none;html=1;rounded=0;entryX=0;entryY=0.5;entryDx=0;entryDy=0;entryPerimeter=0;exitX=1;exitY=0.5;exitDx=0;exitDy=0;exitPerimeter=0;" edge="1" parent="1" source="FsZnFzZRh3o9kU6Aq7DV-30" target="FsZnFzZRh3o9kU6Aq7DV-37">
          <mxGeometry width="50" height="50" relative="1" as="geometry">
            <mxPoint x="370" y="980" as="sourcePoint" />
            <mxPoint x="420" y="930" as="targetPoint" />
          </mxGeometry>
        </mxCell>
        <mxCell id="FsZnFzZRh3o9kU6Aq7DV-135" value="" style="endArrow=none;dashed=1;html=1;rounded=0;" edge="1" parent="1">
          <mxGeometry width="50" height="50" relative="1" as="geometry">
            <mxPoint x="130" y="1030" as="sourcePoint" />
            <mxPoint x="400" y="1030" as="targetPoint" />
          </mxGeometry>
        </mxCell>
        <mxCell id="FsZnFzZRh3o9kU6Aq7DV-136" value="" style="endArrow=none;dashed=1;html=1;rounded=0;" edge="1" parent="1">
          <mxGeometry width="50" height="50" relative="1" as="geometry">
            <mxPoint x="130" y="1030" as="sourcePoint" />
            <mxPoint x="130" y="1180" as="targetPoint" />
          </mxGeometry>
        </mxCell>
        <mxCell id="FsZnFzZRh3o9kU6Aq7DV-137" value="" style="endArrow=none;dashed=1;html=1;rounded=0;" edge="1" parent="1">
          <mxGeometry width="50" height="50" relative="1" as="geometry">
            <mxPoint x="130" y="1180" as="sourcePoint" />
            <mxPoint x="400" y="1180" as="targetPoint" />
          </mxGeometry>
        </mxCell>
        <mxCell id="FsZnFzZRh3o9kU6Aq7DV-138" value="" style="endArrow=none;dashed=1;html=1;rounded=0;" edge="1" parent="1">
          <mxGeometry width="50" height="50" relative="1" as="geometry">
            <mxPoint x="400" y="1030" as="sourcePoint" />
            <mxPoint x="400" y="1180" as="targetPoint" />
          </mxGeometry>
        </mxCell>
        <mxCell id="FsZnFzZRh3o9kU6Aq7DV-139" value="" style="endArrow=none;html=1;rounded=0;entryX=0.5;entryY=1;entryDx=0;entryDy=0;entryPerimeter=0;" edge="1" parent="1" target="FsZnFzZRh3o9kU6Aq7DV-31">
          <mxGeometry width="50" height="50" relative="1" as="geometry">
            <mxPoint x="300" y="1060" as="sourcePoint" />
            <mxPoint x="420" y="1000" as="targetPoint" />
          </mxGeometry>
        </mxCell>
        <mxCell id="FsZnFzZRh3o9kU6Aq7DV-140" value="" style="endArrow=none;html=1;rounded=0;" edge="1" parent="1">
          <mxGeometry width="50" height="50" relative="1" as="geometry">
            <mxPoint x="160" y="1060" as="sourcePoint" />
            <mxPoint x="390" y="1060" as="targetPoint" />
          </mxGeometry>
        </mxCell>
        <mxCell id="FsZnFzZRh3o9kU6Aq7DV-141" value="" style="shape=image;verticalLabelPosition=bottom;labelBackgroundColor=default;verticalAlign=top;aspect=fixed;imageAspect=0;image=data:image/svg+xml,PHN2ZyB4bWxucz0iaHR0cDovL3d3dy53My5vcmcvMjAwMC9zdmciIHhtbG5zOnhsaW5rPSJodHRwOi8vd3d3LnczLm9yZy8xOTk5L3hsaW5rIiB0PSIxNjQ1MDY5MTM0NjAzIiBjbGFzcz0iaWNvbiIgdmlld0JveD0iMCAwIDEwMjQgMTAyNCIgdmVyc2lvbj0iMS4xIiBwLWlkPSIxMDg4OCIgd2lkdGg9IjIwMCIgaGVpZ2h0PSIyMDAiPjxkZWZzPjxzdHlsZSB0eXBlPSJ0ZXh0L2NzcyIvPjwvZGVmcz48cGF0aCBkPSJNOTQ3LjIgNjQwSDc2LjhhNTEuMjY0IDUxLjI2NCAwIDAgMS01MS4yLTUxLjJWNDM1LjJjMC0yOC4yMjQgMjIuOTc2LTUxLjIgNTEuMi01MS4yaDg3MC40YzI4LjIyNCAwIDUxLjIgMjIuOTc2IDUxLjIgNTEuMnYxNTMuNmMwIDI4LjIyNC0yMi45NzYgNTEuMi01MS4yIDUxLjJ6TTc2LjggNDM1LjJ2MTUzLjZoODcwLjRWNDM1LjJINzYuOHpNOTQ3LjIgOTQ3LjJINzYuOGE1MS4yNjQgNTEuMjY0IDAgMCAxLTUxLjItNTEuMnYtMTUzLjZjMC0yOC4yMjQgMjIuOTc2LTUxLjIgNTEuMi01MS4yaDg3MC40YzI4LjIyNCAwIDUxLjIgMjIuOTc2IDUxLjIgNTEuMlY4OTZjMCAyOC4yMjQtMjIuOTc2IDUxLjItNTEuMiA1MS4yek03Ni44IDc0Mi40Vjg5Nmg4NzAuNHYtMTUzLjZINzYuOHpNOTQ3LjIgMzMyLjhINzYuOGE1MS4yNjQgNTEuMjY0IDAgMCAxLTUxLjItNTEuMlYxMjhjMC0yOC4yMjQgMjIuOTc2LTUxLjIgNTEuMi01MS4yaDg3MC40YzI4LjIyNCAwIDUxLjIgMjIuOTc2IDUxLjIgNTEuMnYxNTMuNmMwIDI4LjIyNC0yMi45NzYgNTEuMi01MS4yIDUxLjJ6TTc2LjggMTI4djE1My42aDg3MC40VjEyOEg3Ni44eiIgcC1pZD0iMTA4ODkiLz48cGF0aCBkPSJNOTA4LjggMjA0LjhhMzguNCAzOC40IDAgMSAxLTc2Ljg2NC0wLjA2NCAzOC40IDM4LjQgMCAwIDEgNzYuODY0IDAuMDY0ek05MDguOCA1MTJhMzguNCAzOC40IDAgMSAxLTc2Ljg2NC0wLjA2NEEzOC40IDM4LjQgMCAwIDEgOTA4LjggNTEyek05MDguOCA4MTkuMmEzOC40IDM4LjQgMCAxIDEtNzYuODY0LTAuMDY0IDM4LjQgMzguNCAwIDAgMSA3Ni44NjQgMC4wNjR6TTEyOCAxNzIuOGg1MTJ2NjRIMTI4di02NHpNMTI4IDQ4MGg1MTJ2NjRIMTI4di02NHpNMTI4IDc4Ny4yaDUxMnY2NEgxMjh2LTY0eiIgcC1pZD0iMTA4OTAiLz48L3N2Zz4=;" vertex="1" parent="1">
          <mxGeometry x="150" y="1090" width="50" height="50" as="geometry" />
        </mxCell>
        <mxCell id="FsZnFzZRh3o9kU6Aq7DV-142" value="" style="shape=image;verticalLabelPosition=bottom;labelBackgroundColor=default;verticalAlign=top;aspect=fixed;imageAspect=0;image=data:image/svg+xml,PHN2ZyB4bWxucz0iaHR0cDovL3d3dy53My5vcmcvMjAwMC9zdmciIHhtbG5zOnhsaW5rPSJodHRwOi8vd3d3LnczLm9yZy8xOTk5L3hsaW5rIiB0PSIxNjQ1MDY5MTM0NjAzIiBjbGFzcz0iaWNvbiIgdmlld0JveD0iMCAwIDEwMjQgMTAyNCIgdmVyc2lvbj0iMS4xIiBwLWlkPSIxMDg4OCIgd2lkdGg9IjIwMCIgaGVpZ2h0PSIyMDAiPjxkZWZzPjxzdHlsZSB0eXBlPSJ0ZXh0L2NzcyIvPjwvZGVmcz48cGF0aCBkPSJNOTQ3LjIgNjQwSDc2LjhhNTEuMjY0IDUxLjI2NCAwIDAgMS01MS4yLTUxLjJWNDM1LjJjMC0yOC4yMjQgMjIuOTc2LTUxLjIgNTEuMi01MS4yaDg3MC40YzI4LjIyNCAwIDUxLjIgMjIuOTc2IDUxLjIgNTEuMnYxNTMuNmMwIDI4LjIyNC0yMi45NzYgNTEuMi01MS4yIDUxLjJ6TTc2LjggNDM1LjJ2MTUzLjZoODcwLjRWNDM1LjJINzYuOHpNOTQ3LjIgOTQ3LjJINzYuOGE1MS4yNjQgNTEuMjY0IDAgMCAxLTUxLjItNTEuMnYtMTUzLjZjMC0yOC4yMjQgMjIuOTc2LTUxLjIgNTEuMi01MS4yaDg3MC40YzI4LjIyNCAwIDUxLjIgMjIuOTc2IDUxLjIgNTEuMlY4OTZjMCAyOC4yMjQtMjIuOTc2IDUxLjItNTEuMiA1MS4yek03Ni44IDc0Mi40Vjg5Nmg4NzAuNHYtMTUzLjZINzYuOHpNOTQ3LjIgMzMyLjhINzYuOGE1MS4yNjQgNTEuMjY0IDAgMCAxLTUxLjItNTEuMlYxMjhjMC0yOC4yMjQgMjIuOTc2LTUxLjIgNTEuMi01MS4yaDg3MC40YzI4LjIyNCAwIDUxLjIgMjIuOTc2IDUxLjIgNTEuMnYxNTMuNmMwIDI4LjIyNC0yMi45NzYgNTEuMi01MS4yIDUxLjJ6TTc2LjggMTI4djE1My42aDg3MC40VjEyOEg3Ni44eiIgcC1pZD0iMTA4ODkiLz48cGF0aCBkPSJNOTA4LjggMjA0LjhhMzguNCAzOC40IDAgMSAxLTc2Ljg2NC0wLjA2NCAzOC40IDM4LjQgMCAwIDEgNzYuODY0IDAuMDY0ek05MDguOCA1MTJhMzguNCAzOC40IDAgMSAxLTc2Ljg2NC0wLjA2NEEzOC40IDM4LjQgMCAwIDEgOTA4LjggNTEyek05MDguOCA4MTkuMmEzOC40IDM4LjQgMCAxIDEtNzYuODY0LTAuMDY0IDM4LjQgMzguNCAwIDAgMSA3Ni44NjQgMC4wNjR6TTEyOCAxNzIuOGg1MTJ2NjRIMTI4di02NHpNMTI4IDQ4MGg1MTJ2NjRIMTI4di02NHpNMTI4IDc4Ny4yaDUxMnY2NEgxMjh2LTY0eiIgcC1pZD0iMTA4OTAiLz48L3N2Zz4=;" vertex="1" parent="1">
          <mxGeometry x="210" y="1090" width="50" height="50" as="geometry" />
        </mxCell>
        <mxCell id="FsZnFzZRh3o9kU6Aq7DV-143" value="" style="shape=image;verticalLabelPosition=bottom;labelBackgroundColor=default;verticalAlign=top;aspect=fixed;imageAspect=0;image=data:image/svg+xml,PHN2ZyB4bWxucz0iaHR0cDovL3d3dy53My5vcmcvMjAwMC9zdmciIHhtbG5zOnhsaW5rPSJodHRwOi8vd3d3LnczLm9yZy8xOTk5L3hsaW5rIiB0PSIxNjQ1MDY5MTM0NjAzIiBjbGFzcz0iaWNvbiIgdmlld0JveD0iMCAwIDEwMjQgMTAyNCIgdmVyc2lvbj0iMS4xIiBwLWlkPSIxMDg4OCIgd2lkdGg9IjIwMCIgaGVpZ2h0PSIyMDAiPjxkZWZzPjxzdHlsZSB0eXBlPSJ0ZXh0L2NzcyIvPjwvZGVmcz48cGF0aCBkPSJNOTQ3LjIgNjQwSDc2LjhhNTEuMjY0IDUxLjI2NCAwIDAgMS01MS4yLTUxLjJWNDM1LjJjMC0yOC4yMjQgMjIuOTc2LTUxLjIgNTEuMi01MS4yaDg3MC40YzI4LjIyNCAwIDUxLjIgMjIuOTc2IDUxLjIgNTEuMnYxNTMuNmMwIDI4LjIyNC0yMi45NzYgNTEuMi01MS4yIDUxLjJ6TTc2LjggNDM1LjJ2MTUzLjZoODcwLjRWNDM1LjJINzYuOHpNOTQ3LjIgOTQ3LjJINzYuOGE1MS4yNjQgNTEuMjY0IDAgMCAxLTUxLjItNTEuMnYtMTUzLjZjMC0yOC4yMjQgMjIuOTc2LTUxLjIgNTEuMi01MS4yaDg3MC40YzI4LjIyNCAwIDUxLjIgMjIuOTc2IDUxLjIgNTEuMlY4OTZjMCAyOC4yMjQtMjIuOTc2IDUxLjItNTEuMiA1MS4yek03Ni44IDc0Mi40Vjg5Nmg4NzAuNHYtMTUzLjZINzYuOHpNOTQ3LjIgMzMyLjhINzYuOGE1MS4yNjQgNTEuMjY0IDAgMCAxLTUxLjItNTEuMlYxMjhjMC0yOC4yMjQgMjIuOTc2LTUxLjIgNTEuMi01MS4yaDg3MC40YzI4LjIyNCAwIDUxLjIgMjIuOTc2IDUxLjIgNTEuMnYxNTMuNmMwIDI4LjIyNC0yMi45NzYgNTEuMi01MS4yIDUxLjJ6TTc2LjggMTI4djE1My42aDg3MC40VjEyOEg3Ni44eiIgcC1pZD0iMTA4ODkiLz48cGF0aCBkPSJNOTA4LjggMjA0LjhhMzguNCAzOC40IDAgMSAxLTc2Ljg2NC0wLjA2NCAzOC40IDM4LjQgMCAwIDEgNzYuODY0IDAuMDY0ek05MDguOCA1MTJhMzguNCAzOC40IDAgMSAxLTc2Ljg2NC0wLjA2NEEzOC40IDM4LjQgMCAwIDEgOTA4LjggNTEyek05MDguOCA4MTkuMmEzOC40IDM4LjQgMCAxIDEtNzYuODY0LTAuMDY0IDM4LjQgMzguNCAwIDAgMSA3Ni44NjQgMC4wNjR6TTEyOCAxNzIuOGg1MTJ2NjRIMTI4di02NHpNMTI4IDQ4MGg1MTJ2NjRIMTI4di02NHpNMTI4IDc4Ny4yaDUxMnY2NEgxMjh2LTY0eiIgcC1pZD0iMTA4OTAiLz48L3N2Zz4=;" vertex="1" parent="1">
          <mxGeometry x="270" y="1090" width="50" height="50" as="geometry" />
        </mxCell>
        <mxCell id="FsZnFzZRh3o9kU6Aq7DV-144" value="" style="shape=image;verticalLabelPosition=bottom;labelBackgroundColor=default;verticalAlign=top;aspect=fixed;imageAspect=0;image=data:image/svg+xml,PHN2ZyB4bWxucz0iaHR0cDovL3d3dy53My5vcmcvMjAwMC9zdmciIHhtbG5zOnhsaW5rPSJodHRwOi8vd3d3LnczLm9yZy8xOTk5L3hsaW5rIiB0PSIxNjQ1MDY5MTM0NjAzIiBjbGFzcz0iaWNvbiIgdmlld0JveD0iMCAwIDEwMjQgMTAyNCIgdmVyc2lvbj0iMS4xIiBwLWlkPSIxMDg4OCIgd2lkdGg9IjIwMCIgaGVpZ2h0PSIyMDAiPjxkZWZzPjxzdHlsZSB0eXBlPSJ0ZXh0L2NzcyIvPjwvZGVmcz48cGF0aCBkPSJNOTQ3LjIgNjQwSDc2LjhhNTEuMjY0IDUxLjI2NCAwIDAgMS01MS4yLTUxLjJWNDM1LjJjMC0yOC4yMjQgMjIuOTc2LTUxLjIgNTEuMi01MS4yaDg3MC40YzI4LjIyNCAwIDUxLjIgMjIuOTc2IDUxLjIgNTEuMnYxNTMuNmMwIDI4LjIyNC0yMi45NzYgNTEuMi01MS4yIDUxLjJ6TTc2LjggNDM1LjJ2MTUzLjZoODcwLjRWNDM1LjJINzYuOHpNOTQ3LjIgOTQ3LjJINzYuOGE1MS4yNjQgNTEuMjY0IDAgMCAxLTUxLjItNTEuMnYtMTUzLjZjMC0yOC4yMjQgMjIuOTc2LTUxLjIgNTEuMi01MS4yaDg3MC40YzI4LjIyNCAwIDUxLjIgMjIuOTc2IDUxLjIgNTEuMlY4OTZjMCAyOC4yMjQtMjIuOTc2IDUxLjItNTEuMiA1MS4yek03Ni44IDc0Mi40Vjg5Nmg4NzAuNHYtMTUzLjZINzYuOHpNOTQ3LjIgMzMyLjhINzYuOGE1MS4yNjQgNTEuMjY0IDAgMCAxLTUxLjItNTEuMlYxMjhjMC0yOC4yMjQgMjIuOTc2LTUxLjIgNTEuMi01MS4yaDg3MC40YzI4LjIyNCAwIDUxLjIgMjIuOTc2IDUxLjIgNTEuMnYxNTMuNmMwIDI4LjIyNC0yMi45NzYgNTEuMi01MS4yIDUxLjJ6TTc2LjggMTI4djE1My42aDg3MC40VjEyOEg3Ni44eiIgcC1pZD0iMTA4ODkiLz48cGF0aCBkPSJNOTA4LjggMjA0LjhhMzguNCAzOC40IDAgMSAxLTc2Ljg2NC0wLjA2NCAzOC40IDM4LjQgMCAwIDEgNzYuODY0IDAuMDY0ek05MDguOCA1MTJhMzguNCAzOC40IDAgMSAxLTc2Ljg2NC0wLjA2NEEzOC40IDM4LjQgMCAwIDEgOTA4LjggNTEyek05MDguOCA4MTkuMmEzOC40IDM4LjQgMCAxIDEtNzYuODY0LTAuMDY0IDM4LjQgMzguNCAwIDAgMSA3Ni44NjQgMC4wNjR6TTEyOCAxNzIuOGg1MTJ2NjRIMTI4di02NHpNMTI4IDQ4MGg1MTJ2NjRIMTI4di02NHpNMTI4IDc4Ny4yaDUxMnY2NEgxMjh2LTY0eiIgcC1pZD0iMTA4OTAiLz48L3N2Zz4=;" vertex="1" parent="1">
          <mxGeometry x="330" y="1090" width="50" height="50" as="geometry" />
        </mxCell>
        <mxCell id="FsZnFzZRh3o9kU6Aq7DV-146" value="" style="endArrow=none;html=1;rounded=0;exitX=0.5;exitY=0;exitDx=0;exitDy=0;" edge="1" parent="1" source="FsZnFzZRh3o9kU6Aq7DV-141">
          <mxGeometry width="50" height="50" relative="1" as="geometry">
            <mxPoint x="370" y="1050" as="sourcePoint" />
            <mxPoint x="175" y="1060" as="targetPoint" />
          </mxGeometry>
        </mxCell>
        <mxCell id="FsZnFzZRh3o9kU6Aq7DV-148" value="" style="endArrow=none;html=1;rounded=0;exitX=0.5;exitY=0;exitDx=0;exitDy=0;" edge="1" parent="1" source="FsZnFzZRh3o9kU6Aq7DV-142">
          <mxGeometry width="50" height="50" relative="1" as="geometry">
            <mxPoint x="370" y="1050" as="sourcePoint" />
            <mxPoint x="235" y="1060" as="targetPoint" />
          </mxGeometry>
        </mxCell>
        <mxCell id="FsZnFzZRh3o9kU6Aq7DV-149" value="" style="endArrow=none;html=1;rounded=0;exitX=0.5;exitY=0;exitDx=0;exitDy=0;" edge="1" parent="1" source="FsZnFzZRh3o9kU6Aq7DV-143">
          <mxGeometry width="50" height="50" relative="1" as="geometry">
            <mxPoint x="370" y="1050" as="sourcePoint" />
            <mxPoint x="295" y="1060" as="targetPoint" />
          </mxGeometry>
        </mxCell>
        <mxCell id="FsZnFzZRh3o9kU6Aq7DV-150" value="" style="endArrow=none;html=1;rounded=0;exitX=0.5;exitY=0;exitDx=0;exitDy=0;" edge="1" parent="1" source="FsZnFzZRh3o9kU6Aq7DV-144">
          <mxGeometry width="50" height="50" relative="1" as="geometry">
            <mxPoint x="370" y="1050" as="sourcePoint" />
            <mxPoint x="355" y="1060" as="targetPoint" />
          </mxGeometry>
        </mxCell>
        <mxCell id="FsZnFzZRh3o9kU6Aq7DV-151" value="内网服务器区" style="text;html=1;align=center;verticalAlign=middle;resizable=0;points=[];autosize=1;strokeColor=none;fillColor=none;fontSize=15;" vertex="1" parent="1">
          <mxGeometry x="190" y="1160" width="110" height="20" as="geometry" />
        </mxCell>
      </root>
    </mxGraphModel>
  </diagram>
</mxfile>
